# Blender 4.5.0
# www.blender.org
mtllib A.mtl
o A
v 0.629126 0.416128 0.000000
v 0.581831 0.208234 0.000000
v 0.676761 0.208234 0.000000
v 0.567880 0.507996 0.000000
v 0.690711 0.507996 0.000000
v 0.827833 0.000000 0.000000
v 0.727458 0.000000 0.000000
v 0.696155 0.125553 0.000000
v 0.561756 0.125553 0.000000
v 0.531133 0.000000 0.000000
v 0.430759 0.000000 0.000000
v 0.567880 0.507996 0.141691
v 0.430759 0.000000 0.141691
v 0.629126 0.416128 0.141691
v 0.690711 0.507996 0.141691
v 0.827833 0.000000 0.141691
v 0.581831 0.208234 0.141691
v 0.676761 0.208234 0.141691
v 0.561756 0.125553 0.141691
v 0.696155 0.125553 0.141691
v 0.531133 0.000000 0.141691
v 0.727458 0.000000 0.141691
vn -0.0000 -0.0000 -1.0000
vn -0.0000 -0.0000 1.0000
vn -0.9654 0.2606 -0.0000
vn -0.0000 1.0000 -0.0000
vn 0.9654 0.2606 -0.0000
vn 0.9751 -0.2218 -0.0000
vn -0.9747 -0.2233 -0.0000
vn -0.0000 -1.0000 -0.0000
vn 0.9715 -0.2370 -0.0000
vn -0.9703 -0.2419 -0.0000
vt 1.000000 0.000000
vt 0.300000 0.000000
vt 0.000000 0.000000
vt 0.400000 0.000000
vt 0.500000 0.000000
vt 0.100000 0.000000
vt 0.200000 0.000000
vt 0.800000 0.000000
vt 0.700000 0.000000
vt 0.900000 0.000000
vt 0.600000 0.000000
s 0
f 11/1/1 4/2/1 1/3/1
f 1/3/1 4/2/1 5/4/1
f 1/3/1 5/4/1 6/5/1
f 11/1/1 1/3/1 2/6/1
f 3/7/1 1/3/1 6/5/1
f 11/1/1 2/6/1 9/8/1
f 9/8/1 2/6/1 3/7/1
f 9/8/1 3/7/1 8/9/1
f 8/9/1 3/7/1 6/5/1
f 11/1/1 9/8/1 10/10/1
f 7/11/1 8/9/1 6/5/1
f 13/1/2 14/3/2 12/2/2
f 14/3/2 15/4/2 12/2/2
f 14/3/2 16/5/2 15/4/2
f 13/1/2 17/6/2 14/3/2
f 18/7/2 16/5/2 14/3/2
f 13/1/2 19/8/2 17/6/2
f 19/8/2 18/7/2 17/6/2
f 19/8/2 20/9/2 18/7/2
f 20/9/2 16/5/2 18/7/2
f 13/1/2 21/10/2 19/8/2
f 22/11/2 16/5/2 20/9/2
f 11/1/3 12/2/3 4/2/3
f 4/2/4 15/4/4 5/4/4
f 5/4/5 16/5/5 6/5/5
f 1/3/6 17/6/6 2/6/6
f 3/7/7 14/3/7 1/3/7
f 2/6/4 18/7/4 3/7/4
f 8/9/8 19/8/8 9/8/8
f 10/10/8 13/1/8 11/1/8
f 9/8/9 21/10/9 10/10/9
f 7/11/10 20/9/10 8/9/10
f 6/5/8 22/11/8 7/11/8
f 11/1/3 13/1/3 12/2/3
f 4/2/4 12/2/4 15/4/4
f 5/4/5 15/4/5 16/5/5
f 1/3/6 14/3/6 17/6/6
f 3/7/7 18/7/7 14/3/7
f 2/6/4 17/6/4 18/7/4
f 8/9/8 20/9/8 19/8/8
f 10/10/8 21/10/8 13/1/8
f 9/8/9 19/8/9 21/10/9
f 7/11/10 22/11/10 20/9/10
f 6/5/8 16/5/8 22/11/8
