# Blender 4.5.0
# www.blender.org
mtllib C.mtl
o C
v 0.992729 0.000000 0.141691
v 1.218656 0.000000 0.141691
v 0.992729 0.507996 0.141691
v 0.892354 0.000000 0.141691
v 0.892354 0.507996 0.141691
v 0.892354 0.000000 0.000000
v 0.992729 0.000000 0.000000
v 1.218656 0.000000 0.000000
v 0.992729 0.507996 0.000000
v 0.892354 0.507996 0.000000
v 1.218656 0.000000 0.141691
v 1.218656 0.000000 0.000000
v 1.218656 0.100374 0.141691
v 1.218656 0.100374 0.000000
v 0.992729 0.100374 0.141691
v 0.992729 0.100374 0.000000
v 1.218706 0.507996 0.141691
v 1.218706 0.507996 0.000000
v 1.218706 0.407622 0.141691
v 1.218706 0.407622 0.000000
v 0.992729 0.407622 0.141691
v 0.992729 0.407622 0.000000
vn -0.0000 1.0000 -0.0000
vn -1.0000 -0.0000 -0.0000
vn -0.0000 -1.0000 -0.0000
vn -0.0000 -0.0000 -1.0000
vn -0.0000 -0.0000 1.0000
vn 1.0000 -0.0000 -0.0000
vt 0.000000 0.000000
vt 0.090909 0.000000
vt 1.000000 0.000000
vt 0.909091 0.000000
s 0
f 10/1/1 3/2/1 9/2/1
f 6/3/2 5/1/2 10/1/2
f 7/4/3 4/3/3 6/3/3
f 7/4/4 14/1/4 12/1/4
f 1/4/3 8/1/3 2/1/3
f 2/1/5 12/1/5 11/1/5
f 12/1/6 13/1/6 11/1/6
f 14/1/1 15/1/1 13/1/1
f 3/2/1 18/2/1 9/2/1
f 17/2/6 20/2/6 18/2/6
f 19/2/3 22/2/3 20/2/3
f 20/2/4 9/2/4 18/2/4
f 22/2/6 15/1/6 16/1/6
f 6/3/4 9/2/4 22/2/4
f 21/2/5 17/2/5 3/2/5
f 2/1/5 13/1/5 1/4/5
f 21/2/5 5/1/5 4/3/5
f 10/1/1 5/1/1 3/2/1
f 6/3/2 4/3/2 5/1/2
f 7/4/3 1/4/3 4/3/3
f 7/4/4 16/1/4 14/1/4
f 12/1/5 8/1/5 7/4/5
f 1/4/3 7/4/3 8/1/3
f 2/1/5 8/1/5 12/1/5
f 12/1/6 14/1/6 13/1/6
f 14/1/1 16/1/1 15/1/1
f 3/2/1 17/2/1 18/2/1
f 17/2/6 19/2/6 20/2/6
f 19/2/3 21/2/3 22/2/3
f 20/2/4 22/2/4 9/2/4
f 22/2/6 21/2/6 15/1/6
f 16/1/4 7/4/4 6/3/4
f 6/3/4 10/1/4 9/2/4
f 22/2/4 16/1/4 6/3/4
f 21/2/5 19/2/5 17/2/5
f 13/1/5 15/1/5 1/4/5
f 2/1/5 11/1/5 13/1/5
f 4/3/5 1/4/5 15/1/5
f 21/2/5 3/2/5 5/1/5
f 4/3/5 15/1/5 21/2/5
