# Blender 4.3.0
# www.blender.org
mtllib heart.mtl
o Cube
v -1.824049 0.491803 0.420404
v -1.004377 -0.491803 0.420404
v -1.004377 0.491803 1.000000
v -0.409836 2.188859 0.420404
v 0.000000 0.713450 1.000000
v 0.409836 2.188860 0.420404
v -1.824049 0.491803 -0.420404
v -1.004377 0.491803 -1.000000
v -1.004377 -0.491803 -0.420404
v -0.409836 2.188859 -0.420404
v 0.409836 2.188859 -0.420404
v 0.000000 0.713450 -1.000000
v -0.409836 -1.205253 0.420404
v 0.409836 -1.205253 0.420404
v 0.000000 -0.713450 1.000000
v 1.824049 0.491803 0.420404
v 1.004377 0.491803 1.000000
v 1.004377 -0.491803 0.420404
v -0.409836 -1.205253 -0.420404
v 0.000000 -0.713450 -1.000000
v 0.409836 -1.205253 -0.420404
v 1.004377 -0.491803 -0.420404
v 1.004377 0.491803 -1.000000
v 1.824050 0.491803 -0.420404
v 1.004473 2.902423 0.420404
v 1.414309 2.410620 1.000000
v 1.824145 2.902423 0.420404
v 1.004473 2.902423 -0.420404
v 1.824145 2.902423 -0.420404
v 1.414309 2.410620 -1.000000
v 2.008850 1.697170 -1.000000
v 2.418686 2.188974 -0.420404
v 2.418686 1.205367 -0.420404
v 2.418686 1.205367 0.420404
v 2.418686 2.188974 0.420404
v 2.008850 1.697170 1.000000
v -2.418535 1.205186 -0.420404
v -2.418535 2.188792 -0.420404
v -2.008699 1.696989 -1.000000
v -2.418535 1.205186 0.420404
v -2.008699 1.696989 1.000000
v -2.418535 2.188792 0.420404
v -1.414158 2.410439 1.000000
v -1.004322 2.902242 0.420404
v -1.823993 2.902242 0.420404
v -1.004322 2.902242 -0.420404
v -1.414158 2.410439 -1.000000
v -1.823993 2.902242 -0.420404
vn -0.0000 -0.0000 -1.0000
vn 0.7682 -0.6402 -0.0000
vn 0.7682 0.6402 -0.0000
vn -0.0000 -0.0000 1.0000
vn -0.7682 0.6402 -0.0000
vn -0.7682 -0.6402 -0.0000
vn -0.5203 -0.4336 0.7358
vn -0.0000 0.3656 0.9308
vn -0.5203 -0.4336 -0.7358
vn -0.0000 0.3656 -0.9308
vn -0.0000 -0.7625 0.6470
vn 0.5203 -0.4336 0.7358
vn -0.0000 -0.7625 -0.6470
vn 0.5203 -0.4336 -0.7358
vn -0.0000 0.7625 0.6470
vn -0.0000 0.7625 -0.6470
vn 0.8165 -0.0000 -0.5774
vn 0.8165 -0.0000 0.5774
vn -0.8165 -0.0000 -0.5774
vn -0.8165 -0.0000 0.5774
vn -0.0000 1.0000 -0.0000
vn -0.0000 -1.0000 -0.0000
vn 0.5203 0.4336 -0.7358
vn 1.0000 -0.0000 -0.0000
vn 0.5203 0.4336 0.7358
vn -0.5203 0.4336 -0.7358
vn -0.5203 0.4336 0.7358
vn -1.0000 -0.0000 -0.0000
vt 0.625000 0.427551
vt 0.625000 0.322449
vt 0.447449 0.250000
vt 0.552550 0.250000
vt 0.552551 0.250000
vt 0.625000 0.572449
vt 0.625000 0.677551
vt 0.625000 0.677550
vt 0.625000 0.177551
vt 0.625000 0.072449
vt 0.447449 1.000000
vt 0.552550 1.000000
vt 0.447449 1.000000
vt 0.552551 0.572449
vt 0.447449 0.677551
vt 0.447449 0.572449
vt 0.552551 0.072449
vt 0.447449 0.177551
vt 0.447449 0.072449
vt 0.802551 0.572449
vt 0.697449 0.677551
vt 0.697449 0.572449
vt 0.552551 0.322449
vt 0.447449 0.427551
vt 0.625000 0.177551
vt 0.447449 0.822449
vt 0.552551 0.927551
vt 0.625000 0.822449
vt 0.625000 0.927551
vt 0.625000 0.927550
vt 0.302551 0.572449
vt 0.197449 0.677551
vt 0.197449 0.572449
vt 0.125000 0.677550
vt 0.125000 0.677551
vt 0.125000 0.750000
vt 0.625000 0.000000
vt 0.125000 0.572450
vt 0.125000 0.500000
vt 0.125000 0.572449
vt 0.302551 0.677551
vt 0.375000 0.677551
vt 0.302551 0.750000
vt 0.552551 0.677551
vt 0.302551 0.500000
vt 0.375000 0.572449
vt 0.625000 0.250000
vt 0.625000 0.500000
vt 0.625000 0.750000
vt 0.125000 0.572449
vt 0.125000 0.677550
vt 0.552551 0.000000
vt 0.625000 0.177551
vt 0.552551 0.177551
vt 0.697449 0.500000
vt 0.802551 0.500000
vt 0.802551 0.677551
vt 0.697449 0.750000
vt 0.447449 0.000000
vt 0.447449 0.250000
vt 0.552550 1.000000
vt 0.802551 0.750000
s 0
f 23/1/1 30/2/1 31/1/1
f 8/3/1 47/4/1 12/5/1
f 24/6/2 34/7/2 16/8/2
f 10/9/3 44/10/3 4/10/3
f 3/11/4 43/12/4 41/13/4
f 22/14/2 14/15/2 21/16/2
f 45/17/5 38/18/5 42/19/5
f 29/20/3 35/21/3 32/22/3
f 12/23/1 20/24/1 8/3/1
f 6/10/5 28/9/5 11/25/5
f 15/26/4 5/27/4 3/11/4
f 17/28/4 26/29/4 5/30/4
f 19/31/6 2/32/6 9/33/6
f 1/34/7 2/35/7 3/36/7
f 4/10/8 5/37/8 6/10/8
f 7/38/9 8/39/9 9/40/9
f 10/9/10 11/25/10 12/5/10
f 13/41/11 14/42/11 15/43/11
f 16/8/12 17/28/12 18/44/12
f 19/31/13 20/45/13 21/46/13
f 22/14/14 23/1/14 24/6/14
f 25/10/15 26/37/15 27/10/15
f 28/9/16 29/9/16 30/47/16
f 31/48/17 32/6/17 33/6/17
f 34/7/18 35/7/18 36/49/18
f 37/50/19 38/40/19 39/39/19
f 40/51/20 41/36/20 42/35/20
f 43/52/15 44/10/15 45/17/15
f 46/53/16 47/4/16 48/54/16
f 2/32/6 7/38/6 9/33/6
f 11/25/21 4/10/21 6/10/21
f 9/33/9 20/45/9 19/31/9
f 22/14/14 20/24/14 23/1/14
f 19/31/22 14/15/22 13/41/22
f 16/8/2 22/14/2 24/6/2
f 15/26/12 18/44/12 17/28/12
f 2/32/7 15/43/7 3/36/7
f 29/9/21 25/10/21 27/10/21
f 29/20/23 31/55/23 30/56/23
f 35/21/24 33/6/24 32/22/24
f 27/57/25 36/58/25 35/21/25
f 11/25/26 30/2/26 12/2/26
f 24/6/14 31/1/14 33/6/14
f 36/28/12 16/8/12 34/7/12
f 26/37/27 6/10/27 5/37/27
f 40/51/28 38/40/28 37/50/28
f 43/52/27 42/19/27 41/59/27
f 46/53/21 45/17/21 44/10/21
f 47/4/26 38/18/26 48/54/26
f 7/38/9 39/39/9 8/39/9
f 10/9/23 47/4/23 46/53/23
f 4/10/25 43/37/25 5/37/25
f 1/34/7 41/36/7 40/51/7
f 1/34/6 37/50/6 7/38/6
f 23/1/1 12/2/1 30/2/1
f 8/3/1 39/60/1 47/4/1
f 24/6/2 33/6/2 34/7/2
f 10/9/3 46/53/3 44/10/3
f 3/11/4 5/61/4 43/12/4
f 22/14/2 18/44/2 14/15/2
f 45/17/5 48/54/5 38/18/5
f 29/20/3 27/57/3 35/21/3
f 12/23/1 23/1/1 20/24/1
f 6/10/5 25/10/5 28/9/5
f 15/26/4 17/28/4 5/27/4
f 17/28/4 36/28/4 26/29/4
f 19/31/6 13/41/6 2/32/6
f 2/32/6 1/34/6 7/38/6
f 11/25/21 10/9/21 4/10/21
f 9/33/9 8/39/9 20/45/9
f 22/14/14 21/16/14 20/24/14
f 19/31/22 21/16/22 14/15/22
f 16/8/2 18/44/2 22/14/2
f 15/26/12 14/15/12 18/44/12
f 2/32/7 13/41/7 15/43/7
f 29/9/21 28/9/21 25/10/21
f 29/20/23 32/22/23 31/55/23
f 35/21/24 34/7/24 33/6/24
f 27/57/25 26/62/25 36/58/25
f 11/25/26 28/9/26 30/2/26
f 24/6/14 23/1/14 31/1/14
f 36/28/12 17/28/12 16/8/12
f 26/37/27 25/10/27 6/10/27
f 40/51/28 42/35/28 38/40/28
f 43/52/27 45/17/27 42/19/27
f 46/53/21 48/54/21 45/17/21
f 47/4/26 39/60/26 38/18/26
f 7/38/9 37/50/9 39/39/9
f 10/9/23 12/5/23 47/4/23
f 4/10/25 44/10/25 43/37/25
f 1/34/7 3/36/7 41/36/7
f 1/34/6 40/51/6 37/50/6
